<svg width="38" height="43" viewBox="0 0 38 43" fill="none" xmlns="http://www.w3.org/2000/svg">
    <mask id="r36sptv9lb" style="mask-type:alpha" maskUnits="userSpaceOnUse" x="-8" y="0" width="48" height="48">
        <rect x="-8" width="48" height="48" rx="4" fill="url(#40jpgk1caa)"/>
    </mask>
    <g mask="url(#r36sptv9lb)">
        <path d="M18.559 41.754a3.805 3.805 0 0 1-5.118 0c-4.1-3.719-7.256-7.212-9.466-10.479C1.325 27.358 0 23.733 0 20.4c0-5 1.608-8.983 4.825-11.95C8.042 5.483 11.767 4 16 4a19.412 19.412 0 0 1 1.472.054c.775.06 1.328.742 1.328 1.52v.695c0 .702-.661 1.215-1.358 1.14-.462-.05-.942-.075-1.442-.075-3.554 0-6.553 1.22-8.998 3.661-2.446 2.441-3.668 5.576-3.668 9.405 0 2.456 1.05 5.286 3.15 8.492 1.636 2.498 3.925 5.218 6.864 8.159a3.768 3.768 0 0 0 5.321.019c2.984-2.948 5.283-5.674 6.898-8.178 2.066-3.206 3.1-6.036 3.1-8.492 0-.2-.006-.4-.017-.6a.563.563 0 0 1 .552-.6h2.163c.343 0 .635.258.635.6v.6c0 3.333-1.325 6.958-3.975 10.875-2.21 3.267-5.366 6.76-9.466 10.48zm-2.556-18.087c1.009 0 1.872-.36 2.588-1.079.717-.718 1.075-1.582 1.075-2.591 0-1.009-.359-1.872-1.078-2.588-.718-.717-1.582-1.075-2.591-1.075-1.009 0-1.872.359-2.588 1.078-.717.718-1.075 1.582-1.075 2.591 0 1.009.359 1.872 1.078 2.588.718.717 1.582 1.075 2.591 1.075zM28.4 14.2a1.667 1.667 0 1 0 3.334 0v-1.467A3.133 3.133 0 0 1 34.867 9.6h1.466a1.667 1.667 0 1 0 0-3.333h-1.466a3.133 3.133 0 0 1-3.133-3.134V1.667a1.667 1.667 0 1 0-3.334 0v1.466a3.133 3.133 0 0 1-3.133 3.133H23.8a1.667 1.667 0 0 0 0 3.334h1.467a3.133 3.133 0 0 1 3.133 3.133V14.2z" fill="url(#vrsmysq6cc)"/>
    </g>
    <defs>
        <linearGradient id="40jpgk1caa" x1="-8" y1="24" x2="40" y2="24" gradientUnits="userSpaceOnUse">
            <stop stop-color="#F9D2AC"/>
            <stop offset="1" stop-color="#FF8C3A"/>
        </linearGradient>
        <linearGradient id="vrsmysq6cc" x1="0" y1="22" x2="38" y2="22" gradientUnits="userSpaceOnUse">
            <stop stop-color="#F9D2AC"/>
            <stop offset="1" stop-color="#FF8C3A"/>
        </linearGradient>
    </defs>
</svg>
