<svg width="45" height="32" viewBox="0 0 45 32" fill="none" xmlns="http://www.w3.org/2000/svg">
    <mask id="3ub7iknetb" style="mask-type:alpha" maskUnits="userSpaceOnUse" x="-2" y="-8" width="49" height="48">
        <rect x="-1.469" y="-8" width="48" height="48" rx="4" fill="url(#qd36jht52a)"/>
    </mask>
    <g mask="url(#3ub7iknetb)">
        <path d="M12.131 32c-1.666 0-3.05-.595-4.15-1.784a5.558 5.558 0 0 1-1.201-1.97c-.408-1.183-1.343-2.28-2.594-2.28h-.615a1.666 1.666 0 0 1 0-3.332h2.433c1.17 0 2.242-.586 3.247-1.186a5.5 5.5 0 0 1 2.88-.782 5.5 5.5 0 0 1 2.882.783c1.004.6 2.075 1.184 3.245 1.184h7.54l4.467-19.3H8.435a.585.585 0 0 1-.57-.717c.177-.777.564-1.408 1.158-1.891A3.192 3.192 0 0 1 11.098 0h19.058a3.404 3.404 0 0 1 3.317 4.167 3.404 3.404 0 0 0 3.317 4.167h.1c1.096 0 2.128.516 2.786 1.393l3.684 4.911a4 4 0 0 1 .723 3.18l-1.28 6.445a2.116 2.116 0 0 1-2.075 1.703c-1.224 0-2.14 1.073-2.533 2.233a5.543 5.543 0 0 1-1.23 2.017c-1.111 1.19-2.5 1.784-4.167 1.784-1.666 0-3.05-.595-4.15-1.784a6.334 6.334 0 0 1-.236-.27c-1.474-1.784-3.211-3.98-5.526-3.98h-.809c-2.315 0-4.055 2.197-5.537 3.976a6.394 6.394 0 0 1-.242.274c-1.111 1.19-2.5 1.784-4.167 1.784zm19.022-17.747a3.333 3.333 0 0 0 3.249 4.08h5.23a1.161 1.161 0 0 0 .93-1.856l-2.397-3.206a4 4 0 0 0-3.204-1.605h-.559a3.333 3.333 0 0 0-3.249 2.587zm-1.222-9.57.334-1.35-4.467 19.3.3-1.316 1.7-7.3 2.133-9.333zM1.666 18.318a1.667 1.667 0 0 1 0-3.334H9.23a1.667 1.667 0 0 1 0 3.334H1.666zm4-7.3a1.666 1.666 0 1 1 0-3.333h9.564a1.667 1.667 0 0 1 0 3.333H5.666zm6.465 17.65c.656 0 1.209-.231 1.659-.692a2.27 2.27 0 0 0 .675-1.642c0-.655-.225-1.208-.675-1.658-.45-.45-1.003-.675-1.659-.675a2.27 2.27 0 0 0-1.641.675 2.227 2.227 0 0 0-.692 1.659c0 .633.23 1.18.692 1.641.46.461 1.008.691 1.641.691zm20.667 0c.656 0 1.208-.231 1.658-.692a2.27 2.27 0 0 0 .675-1.642c0-.655-.225-1.208-.675-1.658-.45-.45-1.002-.675-1.658-.675-.633 0-1.18.225-1.642.675a2.227 2.227 0 0 0-.691 1.659c0 .633.23 1.18.691 1.641.462.461 1.009.691 1.642.691z" fill="url(#lx22184vec)"/>
    </g>
    <defs>
        <linearGradient id="qd36jht52a" x1="-1.469" y1="16" x2="46.531" y2="16" gradientUnits="userSpaceOnUse">
            <stop stop-color="#F9D2AC"/>
            <stop offset="1" stop-color="#FF8C3A"/>
        </linearGradient>
        <linearGradient id="lx22184vec" x1="-.469" y1="16" x2="44.431" y2="16" gradientUnits="userSpaceOnUse">
            <stop stop-color="#F9D2AC"/>
            <stop offset="1" stop-color="#FF8C3A"/>
        </linearGradient>
    </defs>
</svg>
