<svg width="40" height="42" viewBox="0 0 40 42" fill="none" xmlns="http://www.w3.org/2000/svg">
    <mask id="sw6k5nzgra" style="mask-type:alpha" maskUnits="userSpaceOnUse" x="-5" y="-3" width="50" height="49">
        <path fill="#D9D9D9" d="M-4.007-2.445h48.08v48.08h-48.08z"/>
    </mask>
    <g mask="url(#sw6k5nzgra)">
        <path d="M34.09 41.611c-.223 0-.429-.036-.618-.108a1.604 1.604 0 0 1-.55-.376L21.435 29.64a1.601 1.601 0 0 1-.376-.55 1.714 1.714 0 0 1-.109-.619c0-.222.037-.428.109-.617.072-.19.198-.373.376-.551l4.257-4.257c.178-.178.361-.303.55-.376.19-.072.396-.108.618-.108.223 0 .429.036.618.108.19.073.373.198.551.376l11.486 11.485c.178.179.303.362.375.551.073.19.109.396.109.618 0 .223-.036.429-.109.618-.072.19-.197.373-.375.55l-4.258 4.258a1.597 1.597 0 0 1-.55.375c-.19.073-.395.11-.618.11zm-.96-4.95a1.357 1.357 0 0 0 1.92-1.92l-7.212-7.212a1.358 1.358 0 0 0-1.92 1.92l7.212 7.212zM5.926 41.628c-.222 0-.436-.04-.642-.117a1.637 1.637 0 0 1-.576-.384L.5 36.92a1.637 1.637 0 0 1-.384-.576A1.804 1.804 0 0 1 0 35.7c0-.222.039-.428.117-.618.078-.189.206-.372.384-.55l9.878-9.879a4.007 4.007 0 0 1 2.833-1.173h1.837a1.837 1.837 0 0 0 1.299-3.135l-6.29-6.29a3.446 3.446 0 0 0-2.437-1.01c-.914 0-1.79-.362-2.437-1.008L2.596 9.448a3.671 3.671 0 1 1 5.192-5.191l2.588 2.588a3.446 3.446 0 0 1 1.01 2.436c0 .914.363 1.79 1.009 2.437l4.755 4.755a4.007 4.007 0 0 0 5.666 0l1.967-1.966a2.09 2.09 0 0 0 0-2.955l-.656-.656a1.162 1.162 0 0 1 0-1.643c.732-.732.213-1.983-.822-1.983h-2.412a1.068 1.068 0 0 1-.755-1.824L25.27.313a1.068 1.068 0 0 1 1.824.756V3.48c0 1.035 1.251 1.553 1.983.821a1.162 1.162 0 0 1 1.643 0l7.192 7.192c.523.523.93 1.122 1.219 1.795.289.673.434 1.388.434 2.145 0 .712-.123 1.397-.367 2.054-.392 1.049-1.724 1.097-2.516.306l-1.39-1.392a1.983 1.983 0 0 0-2.806 0l-.183.184a1.724 1.724 0 0 1-2.438 0 1.724 1.724 0 0 0-2.437 0l-8.109 8.109a4.007 4.007 0 0 0-1.173 2.833v.888a4.007 4.007 0 0 1-1.174 2.832l-9.878 9.879a1.72 1.72 0 0 1-.55.384 1.61 1.61 0 0 1-.619.117zm0-4.007 9.119-9.118a1.357 1.357 0 0 0-1.92-1.92l-9.118 9.118 1.92 1.92zm0 0-1.92-1.92.986.935.934.985z" fill="url(#nmgcdxhpqb)"/>
    </g>
    <defs>
        <linearGradient id="nmgcdxhpqb" x1="0" y1="20.593" x2="40" y2="20.593" gradientUnits="userSpaceOnUse">
            <stop stop-color="#F9D2AC"/>
            <stop offset="1" stop-color="#FF8C3A"/>
        </linearGradient>
    </defs>
</svg>
